<?xml version="1.0" encoding="UTF-8" standalone="no"?>
<svg
   xmlns:dc="http://purl.org/dc/elements/1.1/"
   xmlns:cc="http://creativecommons.org/ns#"
   xmlns:rdf="http://www.w3.org/1999/02/22-rdf-syntax-ns#"
   xmlns:svg="http://www.w3.org/2000/svg"
   xmlns="http://www.w3.org/2000/svg"
   viewBox="0 0 289.67999 27.959999"
   height="27.959999"
   width="289.67999"
   xml:space="preserve"
   id="svg2"
   version="1.1"><metadata
     id="metadata8"><rdf:RDF><cc:Work
         rdf:about=""><dc:format>image/svg+xml</dc:format><dc:type
           rdf:resource="http://purl.org/dc/dcmitype/StillImage" /></cc:Work></rdf:RDF></metadata><defs
     id="defs6" /><g
     transform="matrix(1.3333333,0,0,-1.3333333,0,27.96)"
     id="g10"><g
       transform="scale(0.1)"
       id="g12"><path
         id="path14"
         style="fill:#13153e;fill-opacity:1;fill-rule:nonzero;stroke:none"
         d="M 121.344,10.9688 V 111.629 L 89.5078,10.9688 H 66.6523 L 35.3672,111.355 V 10.9688 H 5.44531 V 201.414 H 35.3672 L 78.082,75.4492 121.344,201.414 H 151.27 V 10.9688 h -29.926" /><path
         id="path16"
         style="fill:none;stroke:#13153e;stroke-width:10.88529968;stroke-linecap:butt;stroke-linejoin:miter;stroke-miterlimit:10;stroke-dasharray:none;stroke-opacity:1"
         d="M 121.344,10.9688 V 111.629 L 89.5078,10.9688 H 66.6523 L 35.3672,111.355 V 10.9688 H 5.44531 V 201.414 H 35.3672 L 78.082,75.4492 121.344,201.414 H 151.27 V 10.9688 Z" /><path
         id="path18"
         style="fill:#13153e;fill-opacity:1;fill-rule:nonzero;stroke:none"
         d="M 199.469,10.9688 V 172.023 l -5.969,0.555 -10.895,28.836 h 46.793 V 10.9688 h -29.929" /><path
         id="path20"
         style="fill:none;stroke:#13153e;stroke-width:10.88529968;stroke-linecap:butt;stroke-linejoin:miter;stroke-miterlimit:10;stroke-dasharray:none;stroke-opacity:1"
         d="M 199.469,10.9688 V 172.023 l -5.969,0.555 -10.895,28.836 h 46.793 V 10.9688 Z" /><path
         id="path22"
         style="fill:#13153e;fill-opacity:1;fill-rule:nonzero;stroke:none"
         d="M 271.316,10.9688 V 201.414 h 29.922 V 38.4453 h 68.289 V 10.9688 h -98.211" /><path
         id="path24"
         style="fill:none;stroke:#13153e;stroke-width:10.88529968;stroke-linecap:butt;stroke-linejoin:miter;stroke-miterlimit:10;stroke-dasharray:none;stroke-opacity:1"
         d="M 271.316,10.9688 V 201.414 h 29.922 V 38.4453 h 68.289 V 10.9688 Z" /><path
         id="path26"
         style="fill:#13153e;fill-opacity:1;fill-rule:nonzero;stroke:none"
         d="M 399.219,10.9688 V 201.414 h 29.922 V 38.4453 h 68.293 V 10.9688 h -98.215" /><path
         id="path28"
         style="fill:none;stroke:#13153e;stroke-width:10.88529968;stroke-linecap:butt;stroke-linejoin:miter;stroke-miterlimit:10;stroke-dasharray:none;stroke-opacity:1"
         d="M 399.219,10.9688 V 201.414 h 29.922 V 38.4453 h 68.293 V 10.9688 Z" /><path
         id="path30"
         style="fill:#13153e;fill-opacity:1;fill-rule:nonzero;stroke:none"
         d="M 671.875,17.2266 C 628.887,0.898438 573.652,1.71875 573.652,60.7617 v 87.3243 c 0,29.656 9.246,40.547 23.672,49.25 17.676,10.328 46.52,8.707 67.742,-2.18 l -8.433,-27.195 c -9.52,3.523 -18.496,4.617 -27.485,4.617 -15.23,0 -25.562,-9.25 -25.562,-22.039 V 61.3008 c 0,-34.0039 42.172,-21.7695 63.648,-15.7813 l 4.641,-28.2929" /><path
         id="path32"
         style="fill:none;stroke:#13153e;stroke-width:10.88529968;stroke-linecap:butt;stroke-linejoin:miter;stroke-miterlimit:10;stroke-dasharray:none;stroke-opacity:1"
         d="M 671.875,17.2266 C 628.887,0.898438 573.652,1.71875 573.652,60.7617 v 87.3243 c 0,29.656 9.246,40.547 23.672,49.25 17.676,10.328 46.52,8.707 67.742,-2.18 l -8.433,-27.195 c -9.52,3.523 -18.496,4.617 -27.485,4.617 -15.23,0 -25.562,-9.25 -25.562,-22.039 V 61.3008 c 0,-34.0039 42.172,-21.7695 63.648,-15.7813 z" /><path
         id="path34"
         style="fill:#13153e;fill-opacity:1;fill-rule:nonzero;stroke:none"
         d="M 709.164,10.9688 V 172.023 l -5.965,0.555 -10.894,28.836 h 46.793 V 10.9688 h -29.934" /><path
         id="path36"
         style="fill:none;stroke:#13153e;stroke-width:10.88529968;stroke-linecap:butt;stroke-linejoin:miter;stroke-miterlimit:10;stroke-dasharray:none;stroke-opacity:1"
         d="M 709.164,10.9688 V 172.023 l -5.965,0.555 -10.894,28.836 h 46.793 V 10.9688 Z" /><path
         id="path38"
         style="fill:#13153e;fill-opacity:1;fill-rule:nonzero;stroke:none"
         d="M 807.133,10.9688 V 171.223 h -39.184 v 30.191 H 877.324 V 171.223 H 837.055 V 10.9688 h -29.922" /><path
         id="path40"
         style="fill:none;stroke:#13153e;stroke-width:10.88529968;stroke-linecap:butt;stroke-linejoin:miter;stroke-miterlimit:10;stroke-dasharray:none;stroke-opacity:1"
         d="M 807.133,10.9688 V 171.223 h -39.184 v 30.191 H 877.324 V 171.223 H 837.055 V 10.9688 Z" /><path
         id="path42"
         style="fill:#13153e;fill-opacity:1;fill-rule:nonzero;stroke:none"
         d="m 972.027,28.6523 c 9.528,1.0821 20.411,5.4415 20.411,26.9336 v 15.2422 c -6.524,-3.2773 -15.231,-6.8047 -28.559,-6.8047 -37.008,0 -62.309,22.8516 -62.309,59.3046 v 78.086 h 29.922 v -75.371 c 0,-22.852 11.434,-32.6367 32.387,-32.6367 19.851,0 25.84,8.1637 28.559,10.8787 v 97.129 h 29.922 V 53.4063 c 0,-26.9297 -9.79,-44.61724 -40.805,-47.60552 l -9.528,22.85152" /><path
         id="path44"
         style="fill:none;stroke:#13153e;stroke-width:10.88529968;stroke-linecap:butt;stroke-linejoin:miter;stroke-miterlimit:10;stroke-dasharray:none;stroke-opacity:1"
         d="m 972.027,28.6523 c 9.528,1.0821 20.411,5.4415 20.411,26.9336 v 15.2422 c -6.524,-3.2773 -15.231,-6.8047 -28.559,-6.8047 -37.008,0 -62.309,22.8516 -62.309,59.3046 v 78.086 h 29.922 v -75.371 c 0,-22.852 11.434,-32.6367 32.387,-32.6367 19.851,0 25.84,8.1637 28.559,10.8787 v 97.129 h 29.922 V 53.4063 c 0,-26.9297 -9.79,-44.61724 -40.805,-47.60552 z" /><path
         id="path46"
         style="fill:#13153e;fill-opacity:1;fill-rule:nonzero;stroke:none"
         d="m 1185.38,92.5898 c 29.11,0 29.11,27.4762 29.11,44.0702 0,30.195 -13.87,34.563 -34.56,34.563 H 1157.9 V 92.5898 Z m 30.47,-81.621 -18.22,53.0546 H 1157.9 V 10.9688 h -29.92 V 201.414 h 64.47 c 37.28,0 53.59,-31.012 53.59,-64.754 0,-18.781 0,-44.0702 -20.93,-62.5662 l 21.21,-63.125 h -30.47" /><path
         id="path48"
         style="fill:none;stroke:#13153e;stroke-width:10.88529968;stroke-linecap:butt;stroke-linejoin:miter;stroke-miterlimit:10;stroke-dasharray:none;stroke-opacity:1"
         d="m 1185.38,92.5898 c 29.11,0 29.11,27.4762 29.11,44.0702 0,30.195 -13.87,34.563 -34.56,34.563 H 1157.9 V 92.5898 Z m 30.47,-81.621 -18.22,53.0546 H 1157.9 V 10.9688 h -29.92 V 201.414 h 64.47 c 37.28,0 53.59,-31.012 53.59,-64.754 0,-18.781 0,-44.0702 -20.93,-62.5662 l 21.21,-63.125 z" /><path
         id="path50"
         style="fill:#13153e;fill-opacity:1;fill-rule:nonzero;stroke:none"
         d="m 1367.41,201.68 h 29.93 V 61.5703 c 0,-40 -30.2,-52.5078 -57.13,-52.5078 -26.93,0 -57.41,12.5078 -57.41,52.5078 V 201.68 h 29.94 V 73.5469 c 0,-22.8555 4.62,-35.1016 27.2,-35.1016 22.85,0 27.47,12.2461 27.47,35.1016 V 201.68" /><path
         id="path52"
         style="fill:none;stroke:#13153e;stroke-width:10.88529968;stroke-linecap:butt;stroke-linejoin:miter;stroke-miterlimit:10;stroke-dasharray:none;stroke-opacity:1"
         d="m 1367.41,201.68 h 29.93 V 61.5703 c 0,-40 -30.2,-52.5078 -57.13,-52.5078 -26.93,0 -57.41,12.5078 -57.41,52.5078 V 201.68 h 29.94 V 73.5469 c 0,-22.8555 4.62,-35.1016 27.2,-35.1016 22.85,0 27.47,12.2461 27.47,35.1016 z" /><path
         id="path54"
         style="fill:#13153e;fill-opacity:1;fill-rule:nonzero;stroke:none"
         d="M 1544.57,10.9688 1470.84,139.66 V 10.9688 h -29.92 V 201.414 h 29.92 L 1544.57,73.5469 V 201.414 h 30.21 V 10.9688 h -30.21" /><path
         id="path56"
         style="fill:none;stroke:#13153e;stroke-width:10.88529968;stroke-linecap:butt;stroke-linejoin:miter;stroke-miterlimit:10;stroke-dasharray:none;stroke-opacity:1"
         d="M 1544.57,10.9688 1470.84,139.66 V 10.9688 h -29.92 V 201.414 h 29.92 L 1544.57,73.5469 V 201.414 h 30.21 V 10.9688 Z" /><path
         id="path58"
         style="fill:#13153e;fill-opacity:1;fill-rule:nonzero;stroke:none"
         d="M 1723.09,10.9688 1649.36,139.66 V 10.9688 h -29.94 V 201.414 h 29.94 L 1723.09,73.5469 V 201.414 h 30.2 V 10.9688 h -30.2" /><path
         id="path60"
         style="fill:none;stroke:#13153e;stroke-width:10.88529968;stroke-linecap:butt;stroke-linejoin:miter;stroke-miterlimit:10;stroke-dasharray:none;stroke-opacity:1"
         d="M 1723.09,10.9688 1649.36,139.66 V 10.9688 h -29.94 V 201.414 h 29.94 L 1723.09,73.5469 V 201.414 h 30.2 V 10.9688 Z" /><path
         id="path62"
         style="fill:#13153e;fill-opacity:1;fill-rule:nonzero;stroke:none"
         d="M 1804.21,10.9688 V 172.023 l -5.97,0.555 -10.9,28.836 h 46.8 V 10.9688 h -29.93" /><path
         id="path64"
         style="fill:none;stroke:#13153e;stroke-width:10.88529968;stroke-linecap:butt;stroke-linejoin:miter;stroke-miterlimit:10;stroke-dasharray:none;stroke-opacity:1"
         d="M 1804.21,10.9688 V 172.023 l -5.97,0.555 -10.9,28.836 h 46.8 V 10.9688 Z" /><path
         id="path66"
         style="fill:#13153e;fill-opacity:1;fill-rule:nonzero;stroke:none"
         d="M 1985.15,10.9688 1911.42,139.66 V 10.9688 h -29.93 V 201.414 h 29.93 L 1985.15,73.5469 V 201.414 h 30.2 V 10.9688 h -30.2" /><path
         id="path68"
         style="fill:none;stroke:#13153e;stroke-width:10.88529968;stroke-linecap:butt;stroke-linejoin:miter;stroke-miterlimit:10;stroke-dasharray:none;stroke-opacity:1"
         d="M 1985.15,10.9688 1911.42,139.66 V 10.9688 h -29.93 V 201.414 h 29.93 L 1985.15,73.5469 V 201.414 h 30.2 V 10.9688 Z" /><path
         id="path70"
         style="fill:#13153e;fill-opacity:1;fill-rule:nonzero;stroke:none"
         d="m 2138.91,10.9688 -1.63,2.1757 c -6.25,-2.1757 -11.98,-4.90231 -24.5,-4.90231 -28.55,0 -57.4,15.51951 -57.4,54.14061 V 147.82 c 0,26.66 9.26,40.528 23.67,49.239 17.69,10.343 46.53,8.703 67.75,-2.176 l -8.98,-26.922 c -9.53,3.523 -15.78,4.883 -24.75,4.883 -15.25,0 -27.77,-3.528 -27.77,-22.582 V 61.8477 c 0,-18.2344 10.62,-23.4024 27.21,-23.4024 11.16,0 24.77,3.8125 24.77,23.125 v 2.4531 h -15.51 l -9.52,28.5664 h 54.96 v -81.621 h -28.3" /><path
         id="path72"
         style="fill:none;stroke:#13153e;stroke-width:10.88529968;stroke-linecap:butt;stroke-linejoin:miter;stroke-miterlimit:10;stroke-dasharray:none;stroke-opacity:1"
         d="m 2138.91,10.9688 -1.63,2.1757 c -6.25,-2.1757 -11.98,-4.90231 -24.5,-4.90231 -28.55,0 -57.4,15.51951 -57.4,54.14061 V 147.82 c 0,26.66 9.26,40.528 23.67,49.239 17.69,10.343 46.53,8.703 67.75,-2.176 l -8.98,-26.922 c -9.53,3.523 -15.78,4.883 -24.75,4.883 -15.25,0 -27.77,-3.528 -27.77,-22.582 V 61.8477 c 0,-18.2344 10.62,-23.4024 27.21,-23.4024 11.16,0 24.77,3.8125 24.77,23.125 v 2.4531 h -15.51 l -9.52,28.5664 h 54.96 v -81.621 z" /></g></g></svg>